<svg xmlns="http://www.w3.org/2000/svg" viewBox="0 0 200 200" role="img" aria-label="Personalizados">
  <defs><linearGradient id="f" x1="0" y1="0" x2="1" y2="1"><stop offset="0" stop-color="#FBE9EC"/><stop offset="1" stop-color="#F0C4CD"/></linearGradient></defs>
  <rect width="200" height="200" fill="url(#f)"/>
  <path d="M100 160 C46 122 44 78 72 66 C88 60 100 70 100 82 C100 70 112 60 128 66 C156 78 154 122 100 160 Z" fill="#FFFFFF" stroke="#B76E79" stroke-width="5" stroke-linejoin="round"/>
  <text x="100" y="120" text-anchor="middle" font-family="Georgia, 'Times New Roman', serif" font-size="46" font-style="italic" fill="#C9A25B">L</text>
  <g fill="#E8CF97"><path d="M160 46 l4 10 10 4 -10 4 -4 10 -4 -10 -10 -4 10 -4z"/><path d="M40 122 l3 7 7 3 -7 3 -3 7 -3 -7 -7 -3 7 -3z"/></g>
</svg>
